<svg width="276" height="276" viewBox="0 0 276 276" fill="none" xmlns="http://www.w3.org/2000/svg">
<path d="M152.51 181.823C158.465 185.708 175.377 187.987 190.833 187.843" stroke="black" stroke-width="4" stroke-miterlimit="10" stroke-linecap="round" stroke-linejoin="round"/>
<path d="M123.031 181.823C117.076 185.708 100.164 187.987 84.7078 187.843" stroke="black" stroke-width="4" stroke-miterlimit="10" stroke-linecap="round" stroke-linejoin="round"/>
<path d="M125.979 55.0625V2H149.562V99.2813H125.979V84.5417" stroke="black" stroke-width="4" stroke-miterlimit="10" stroke-linecap="round" stroke-linejoin="round"/>
<path d="M123.031 181.086C123.031 172.947 129.631 167.083 137.77 167.083C145.91 167.083 152.51 172.947 152.51 181.086V196.562H123.031V181.086Z" stroke="black" stroke-width="4" stroke-miterlimit="10" stroke-linecap="round" stroke-linejoin="round"/>
<path d="M93.9068 252.929C97.3605 249.476 97.3605 243.876 93.9068 240.422C90.4531 236.969 84.8536 236.969 81.4 240.422C77.9463 243.876 77.9463 249.476 81.4 252.929C84.8536 256.383 90.4531 256.383 93.9068 252.929Z" stroke="black" stroke-width="4" stroke-miterlimit="10" stroke-linecap="round" stroke-linejoin="round"/>
<path d="M194.135 252.93C197.589 249.477 197.589 243.877 194.135 240.423C190.682 236.97 185.082 236.97 181.629 240.423C178.175 243.877 178.175 249.477 181.629 252.93C185.082 256.384 190.682 256.384 194.135 252.93Z" stroke="black" stroke-width="4" stroke-miterlimit="10" stroke-linecap="round" stroke-linejoin="round"/>
<path d="M96.4995 246.677H179.041" stroke="black" stroke-width="4" stroke-miterlimit="10" stroke-linecap="round" stroke-linejoin="round"/>
<path d="M93.0446 238.34L123.031 193.615" stroke="black" stroke-width="4" stroke-miterlimit="10" stroke-linecap="round" stroke-linejoin="round"/>
<path d="M182.496 238.34L152.51 193.615" stroke="black" stroke-width="4" stroke-miterlimit="10" stroke-linecap="round" stroke-linejoin="round"/>
<path d="M137.77 196.562V246.677" stroke="black" stroke-width="4" stroke-miterlimit="10" stroke-linecap="round" stroke-linejoin="round"/>
<path d="M120.083 199.51V243.729" stroke="black" stroke-width="4" stroke-miterlimit="10" stroke-linecap="round" stroke-linejoin="round"/>
<path d="M155.458 199.51V246.677" stroke="black" stroke-width="4" stroke-miterlimit="10" stroke-linecap="round" stroke-linejoin="round"/>
<path d="M173.145 226.042V246.677" stroke="black" stroke-width="4" stroke-miterlimit="10" stroke-linecap="round" stroke-linejoin="round"/>
<path d="M102.395 226.042V246.677" stroke="black" stroke-width="4" stroke-miterlimit="10" stroke-linecap="round" stroke-linejoin="round"/>
<path d="M119.735 123.684C122.886 127.154 122.792 139.405 122.792 139.405C122.792 139.405 123.214 155.309 119.735 157.612C108.792 164.855 67.9106 166.98 58.6718 157.612C49.4331 148.243 59.2585 131.9 70.5018 123.684C82.6325 114.817 110.885 113.938 119.735 123.684Z" stroke="black" stroke-width="4" stroke-miterlimit="10" stroke-linecap="round" stroke-linejoin="round"/>
<path d="M155.363 123.684C152.212 127.154 152.307 139.405 152.307 139.405C152.307 139.405 151.885 155.309 155.363 157.612C166.306 164.855 207.188 166.98 216.427 157.612C225.665 148.243 215.84 131.9 204.597 123.684C192.466 114.817 164.216 113.938 155.363 123.684Z" stroke="black" stroke-width="4" stroke-miterlimit="10" stroke-linecap="round" stroke-linejoin="round"/>
<path d="M194.137 240.425L216.872 201.238" stroke="black" stroke-width="4" stroke-miterlimit="10" stroke-linecap="round"/>
<path d="M75.5988 53.391C88.3043 39.6419 106.186 30.2911 125.979 27.4376" stroke="black" stroke-width="4" stroke-miterlimit="10" stroke-linecap="round"/>
<path d="M60.7501 76.3671C61.9263 73.5872 63.2559 70.8899 64.7269 68.2898" stroke="black" stroke-width="4" stroke-miterlimit="10" stroke-linecap="round"/>
<path d="M81.4032 240.425L58.6689 201.238" stroke="black" stroke-width="4" stroke-miterlimit="10" stroke-linecap="round"/>
<path d="M220.601 240.654C240.947 237.833 267.193 228.509 271.09 226.481" stroke="black" stroke-width="4" stroke-miterlimit="10" stroke-linecap="round"/>
<path d="M55.8919 240.654C35.5454 237.833 8.35088 228.288 4.45374 226.26" stroke="black" stroke-width="4" stroke-miterlimit="10" stroke-linecap="round"/>
<path d="M240.947 128.76C240.947 128.76 216.382 75.2056 149.562 99.2812" stroke="black" stroke-width="4" stroke-miterlimit="10" stroke-linecap="round"/>
<path d="M34.5933 128.76C34.5933 128.76 59.1583 75.2056 125.979 99.2812" stroke="black" stroke-width="4" stroke-miterlimit="10" stroke-linecap="round"/>
<path d="M125.979 8.57678C74.5906 14.4815 34.5932 58.1195 34.5932 111.073V128.76L6.18713 221.157C0.936887 235.254 -0.690362 249.38 9.16452 254.51C38.004 269.52 105.028 273.208 137.756 273.208C170.483 273.208 237.501 269.52 266.341 254.51C276.196 249.38 274.542 235.254 269.292 221.157L240.827 128.76L240.947 114.112L240.827 111.073C240.827 58.1195 200.935 14.4815 149.562 8.57678" stroke="black" stroke-width="4" stroke-miterlimit="10" stroke-linecap="round"/>
</svg>
